<?xml version="1.0" ?><!DOCTYPE svg  PUBLIC '-//W3C//DTD SVG 1.1//EN'  'http://www.w3.org/Graphics/SVG/1.1/DTD/svg11.dtd'><svg enable-background="new 0 0 64 64" id="Layer_1" version="1.1" viewBox="0 0 64 64" xml:space="preserve" xmlns="http://www.w3.org/2000/svg" xmlns:xlink="http://www.w3.org/1999/xlink"><g><polygon fill="#49897A" points="41.7,17.1 39.8,15.3 36.7,31.8 39,31.8  "/><polygon fill="#7EBCAF" points="46.3,14.2 44.4,8.1 40.5,13.2 43,15.6  "/><polygon fill="#49897A" points="41,31.8 43.3,31.8 46.1,16.5 43.7,17.5  "/><path d="M31.5,6.1h-7.1v3.5h1.5c0.6,0,1,0.4,1,1c0,0.6-0.4,1-1,1h-1.5v2.2h1.5c0.6,0,1,0.4,1,1c0,0.6-0.4,1-1,1   h-1.5V18h1.5c0.6,0,1,0.4,1,1s-0.4,1-1,1h-1.5v2.2h1.5c0.6,0,1,0.4,1,1s-0.4,1-1,1h-1.5v2.2h1.5c0.6,0,1,0.4,1,1s-0.4,1-1,1h-1.5   v3.5h7.1V6.1z" fill="#A3D3C7"/><polygon fill="#7EBCAF" points="23.4,33.8 16.6,33.8 16.5,38.4 18.2,38.4 45.8,38.4 47.4,38.4 47.5,33.8 32.5,33.8  "/><polygon fill="#BEEDDF" points="21.7,57.9 42.3,57.9 44.6,40.4 19.4,40.4  "/><path d="M47.6,31.8h-2.3L48.5,15c0-0.2,0-0.3,0-0.5l-2.6-8.8C45.7,5.3,45.4,5.1,45,5c-0.4-0.1-0.7,0.1-1,0.4   l-5.7,7.3c-0.1,0.1-0.2,0.3-0.2,0.4l-3.5,18.7h-1.2V5.1c0-0.6-0.4-1-1-1h-9.1c-0.6,0-1,0.4-1,1v26.7h-5.9c-1,0-1.9,0.9-1.9,2v4.6   c0,1.1,0.8,2,1.9,2h0.9L19.8,59c0.1,0.5,0.5,0.9,1,0.9h22.4c0.5,0,0.9-0.4,1-0.9l2.5-18.6h0.9c1,0,1.9-0.9,1.9-2v-4.6   C49.5,32.7,48.6,31.8,47.6,31.8z M43.3,31.8H41l2.7-14.3l2.4-1L43.3,31.8z M44.4,8.1l1.8,6.1L43,15.6l-2.5-2.4L44.4,8.1z    M39.8,15.3l1.9,1.8L39,31.8h-2.2L39.8,15.3z M24.4,28.3h1.5c0.6,0,1-0.4,1-1s-0.4-1-1-1h-1.5v-2.2h1.5c0.6,0,1-0.4,1-1s-0.4-1-1-1   h-1.5V20h1.5c0.6,0,1-0.4,1-1s-0.4-1-1-1h-1.5v-2.2h1.5c0.6,0,1-0.4,1-1c0-0.6-0.4-1-1-1h-1.5v-2.2h1.5c0.6,0,1-0.4,1-1   c0-0.6-0.4-1-1-1h-1.5V6.1h7.1v25.7h-7.1V28.3z M42.3,57.9H21.7l-2.3-17.5h25.3L42.3,57.9z M47.4,38.4h-1.7H18.2h-1.7l0-4.6h6.8   h9.1h15L47.4,38.4z" fill="#101A1E"/></g></svg>