<?xml version="1.0" ?><svg id="Layer_1" style="enable-background:new 0 0 66 66;" version="1.1" viewBox="0 0 66 66" xml:space="preserve" xmlns="http://www.w3.org/2000/svg" xmlns:xlink="http://www.w3.org/1999/xlink"><style type="text/css">
	.st0{fill:#D4EFFC;}
	.st1{fill:#A0DFFF;}
	.st2{fill:#364DEC;}
	.st3{fill:#FABF63;}
	.st4{fill:#F5B6A3;}
	.st5{fill:#26CD9D;}
	.st6{fill:#FFFFFF;}
</style><g><g><path class="st2" d="M58.23,10.15H33.42c-0.4,0-0.73,0.33-0.73,0.73v6.87h1.47v-6.13h23.34v51.92h-1.12V65h1.85    c0.4,0,0.73-0.33,0.73-0.73V10.89C58.96,10.48,58.63,10.15,58.23,10.15z"/></g><g><g><rect class="st0" height="3.74" width="18.26" x="36.69" y="13.56"/></g><g><rect class="st0" height="3.74" width="14.76" x="40.19" y="19.88"/></g><g><rect class="st0" height="3.74" width="11.64" x="43.32" y="26.21"/></g><g><rect class="st0" height="3.74" width="11.64" x="43.32" y="32.54"/></g><g><rect class="st0" height="3.74" width="11.64" x="43.32" y="38.87"/></g><g><rect class="st0" height="3.74" width="11.64" x="43.32" y="45.2"/></g><g><rect class="st0" height="3.74" width="11.64" x="43.32" y="51.53"/></g><g><rect class="st0" height="3.74" width="11.64" x="43.32" y="57.85"/></g></g><g><path class="st2" d="M55.35,11.62H36.29c-0.4,0-0.73-0.33-0.73-0.73V5.8c0-0.21,0.09-0.41,0.25-0.55c0.16-0.14,0.38-0.2,0.58-0.18    l19.06,2.54c0.36,0.05,0.64,0.36,0.64,0.73v2.54C56.09,11.29,55.76,11.62,55.35,11.62z M37.02,10.15h17.6V8.99l-17.6-2.35V10.15z"/></g><g><rect class="st0" height="40.76" width="2.29" x="7.77" y="23.51"/></g><g><rect class="st0" height="40.76" width="2.29" x="41.28" y="23.51"/></g><g><path class="st2" d="M43.56,65H7.77c-0.4,0-0.73-0.33-0.73-0.73V23.51c0-0.4,0.33-0.73,0.73-0.73h35.79c0.4,0,0.73,0.33,0.73,0.73    v40.76C44.3,64.67,43.97,65,43.56,65z M8.51,63.53h34.32V24.24H8.51V63.53z"/></g><g><rect class="st0" height="5.51" width="2.67" x="10.91" y="18"/></g><g><rect class="st0" height="5.51" width="2.68" x="37.76" y="18"/></g><g><path class="st2" d="M40.43,24.24H10.9c-0.4,0-0.73-0.33-0.73-0.73V18c0-0.4,0.33-0.73,0.73-0.73h29.53c0.4,0,0.73,0.33,0.73,0.73    v5.51C41.16,23.92,40.84,24.24,40.43,24.24z M11.64,22.78H39.7v-4.04H11.64V22.78z"/></g><g><rect class="st5" height="6.6" width="3.42" x="18.04" y="27.06"/></g><g><rect class="st5" height="6.6" width="3.42" x="24.39" y="27.06"/></g><g><rect class="st5" height="6.6" width="3.42" x="30.74" y="27.06"/></g><g><g><rect class="st5" height="6.6" width="3.42" x="11.69" y="27.06"/></g><g><rect class="st5" height="6.6" width="3.42" x="37.09" y="27.06"/></g></g><g><path class="st2" d="M31.84,65H19.49c-0.4,0-0.73-0.33-0.73-0.73V45.2c0-0.4,0.33-0.73,0.73-0.73h12.35c0.4,0,0.73,0.33,0.73,0.73    v19.07C32.58,64.67,32.25,65,31.84,65z M20.23,63.53h10.88v-17.6H20.23V63.53z"/></g><g><path class="st4" d="M29.53,54.73c0,0.73-0.59,1.32-1.31,1.32s-1.31-0.59-1.31-1.32c0-0.73,0.59-1.31,1.31-1.31    S29.53,54,29.53,54.73z"/></g><g><path class="st2" d="M19.71,18.73h-5.1c-0.4,0-0.73-0.33-0.73-0.73v-7.11c0-0.4,0.33-0.73,0.73-0.73h5.1    c0.4,0,0.73,0.33,0.73,0.73V18C20.45,18.4,20.12,18.73,19.71,18.73z M15.35,17.27h3.63v-5.65h-3.63V17.27z"/></g><g><path class="st2" d="M17.17,11.62c-0.4,0-0.73-0.33-0.73-0.73V1.73c0-0.4,0.33-0.73,0.73-0.73c0.4,0,0.73,0.33,0.73,0.73v9.15    C17.9,11.29,17.57,11.62,17.17,11.62z"/></g><g><rect class="st5" height="6.6" width="3.42" x="18.04" y="36.16"/></g><g><rect class="st5" height="6.6" width="3.42" x="24.39" y="36.16"/></g><g><rect class="st5" height="6.6" width="3.42" x="30.74" y="36.16"/></g><g><g><rect class="st5" height="6.6" width="3.42" x="11.69" y="36.16"/></g><g><rect class="st5" height="6.6" width="3.42" x="37.09" y="36.16"/></g></g><g><g><rect class="st5" height="6.6" width="3.42" x="11.69" y="45.14"/></g><g><rect class="st5" height="6.6" width="3.42" x="37.09" y="45.14"/></g></g><g><g><rect class="st5" height="6.6" width="3.42" x="11.69" y="54.12"/></g><g><rect class="st5" height="6.6" width="3.42" x="37.09" y="54.12"/></g></g><g><path class="st2" d="M64.27,65H1.73C1.33,65,1,64.67,1,64.27c0-0.4,0.33-0.73,0.73-0.73h62.54c0.4,0,0.73,0.33,0.73,0.73    C65,64.67,64.67,65,64.27,65z"/></g></g></svg>